# xmcd
#
# Track frame offsets: 
#        150
#        9820
#        20850
#        32407
#        44282
#        55167
#        66042
#        75647
#        87465
#        100140
#        110012
#        118885
#        131365
#        143005
#        152145
#        162067
#        171097
#        181660
#        196492
#        206750
#        216952
#        227852
#        236525
#        246365
#        257222
#        265747
#        278397
#        290615
#        303337
#
# Disc length: 4202 seconds
#
# Revision: 2
# Processed by: cddbd v1.5.2PL0 Copyright (c) Steve Scherf et al.
# Submitted via: ExactAudioCopy v1.0b1
#
DISCID=9410681d
DTITLE=Skeeter Davis - The Ultimate Collection
DYEAR=1998
DGENRE=Country
TTITLE0=I Can't Stay Mad At You (stereo)
TTITLE1=Don't Let Me Stand In Your Way (mono)
TTITLE2=Let Me Get Close To You (stereo)
TTITLE3=What Does It Take (To Keep A Man Like You Satisfied) (stereo)
TTITLE4=Gonna Get Along Without You Now (stereo)
TTITLE5=Tell Tommy I Miss Him (stereo)
TTITLE6=Keep Your Hands Off My Baby (mono)
TTITLE7=I Will (stereo)
TTITLE8=He Says The Same Things To Me (stereo)
TTITLE9=Something Precious (stereo)
TTITLE10=Now I Lay Me Down To Weep (stereo)
TTITLE11=(I Can't Help It) I'm Falling Too (stereo)
TTITLE12=My Last Date With You (stereo)
TTITLE13=I'm Saving My Love (stereo)
TTITLE14=Silver Threads And Golden Needles (stereo)
TTITLE15=Maybe Baby (stereo)
TTITLE16=That'll Be The Day (stereo)
TTITLE17=True Love Ways (stereo)
TTITLE18=It's So Easy (stereo)
TTITLE19=Lost To A Geisha Girl (mono)
TTITLE20=He'll Have To Stay (stereo)
TTITLE21=A Dear John Letter (stereo)
TTITLE22=Heartbeat (stereo)
TTITLE23=Oh! Boy (stereo)
TTITLE24=Think It Over (stereo)
TTITLE25=Raining In My Heart (stereo)
TTITLE26=Your Cheatin' Heart (stereo)
TTITLE27=Why I'm Walkin' (mono)
TTITLE28=The End Of The World (stereo)
EXTD=
EXTT0=
EXTT1=
EXTT2=
EXTT3=
EXTT4=
EXTT5=
EXTT6=
EXTT7=
EXTT8=
EXTT9=
EXTT10=
EXTT11=
EXTT12=
EXTT13=
EXTT14=
EXTT15=
EXTT16=
EXTT17=
EXTT18=
EXTT19=
EXTT20=
EXTT21=
EXTT22=
EXTT23=
EXTT24=
EXTT25=
EXTT26=
EXTT27=
EXTT28=
PLAYORDER=
